# xmcd
#
# Track frame offsets: 
#        150
#        14910
#        28930
#        41746
#        54865
#        66804
#        81102
#        95997
#        109516
#        121170
#        135007
#        148764
#        162973
#        175650
#        189255
#        203787
#        217160
#        230401
#        245096
#        257631
#        271566
#        286398
#        298585
#        311175
#        323464
#
# Disc length: 4469 seconds
#
# Revision: 5
# Processed by: cddbd v1.5.2PL0 Copyright (c) Steve Scherf et al.
# Submitted via: ExactAudioCopy v1.0b1
#
DISCID=6d117319
DTITLE=Arthur 'Big Boy' Crudup - My Baby Left Me
DYEAR=2011
DGENRE=Blues
TTITLE0=Death Valley Blues
TTITLE1=If I Get Lucky
TTITLE2=Standing At My Window
TTITLE3=Give Me A 32-20
TTITLE4=Mean Old 'Frisco Blues
TTITLE5=Cool Disposition
TTITLE6=Who's Been Foolin' You
TTITLE7=Rock Me Mama
TTITLE8=Keep Your Arms Around Me
TTITLE9=I'm In The Mood
TTITLE10=She's Gone
TTITLE11=Ethel Mae
TTITLE12=So Glad You're Mine
TTITLE13=You Got To Reap
TTITLE14=Chicago Blues
TTITLE15=Crudup's After Hours
TTITLE16=That's All Right
TTITLE17=Crudup's Vicksburg Blues
TTITLE18=Gonna Be Some Changes Made
TTITLE19=Katie May
TTITLE20=Just Like A Spider
TTITLE21=Dust My Broom
TTITLE22=Hand Me Down My Walking Cane
TTITLE23=Shout, Sister, Shout
TTITLE24=Come Back Baby
EXTD=YEAR: 2011
EXTT0=
EXTT1=
EXTT2=
EXTT3=
EXTT4=
EXTT5=
EXTT6=
EXTT7=
EXTT8=
EXTT9=
EXTT10=
EXTT11=
EXTT12=
EXTT13=
EXTT14=
EXTT15=
EXTT16=
EXTT17=
EXTT18=
EXTT19=
EXTT20=
EXTT21=
EXTT22=
EXTT23=
EXTT24=
PLAYORDER=
